#Comment line ignore any data following # character 
#Hierarchical Translation and Rotation (.htr) file 
[Header]	
#Header keywords are followed by a single value 
FileType HTR		#Single word string
DataType HTRS		#Translation followed by rotation and scale data
FileVersion 1		#integer
NumSegments 84		#integer
NumFrames 2		#integer
DataFrameRate 30		#integer, data frame rate in this file
EulerRotationOrder ZYX
CalibrationUnits mm
RotationUnits Degrees
GlobalAxisofGravity Y
BoneLengthAxis Y
ScaleFactor 1.00
[SegmentNames&Hierarchy]
#CHILD	PARENT
MASTER GLOBAL
root MASTER
chest root
L_mid_tent01 root
R_mid_tent01 root
spine01 root
Bip01_Neck chest
L_humerus chest
R_humerus chest
weapon_bone chest
Bip01_Head Bip01_Neck
eye_left_bone Bip01_Head
eye_right_bone Bip01_Head
L_forearm L_humerus
L_front_hand L_forearm
L_weapon_bone L_forearm
L_front_hand01_01 L_front_hand
L_front_hand02_01 L_front_hand
L_front_hand03_01 L_front_hand
L_front_hand01_02 L_front_hand01_01
L_front_hand02_02 L_front_hand02_01
L_front_hand03_02 L_front_hand03_01
R_forearm R_humerus
R_front_hand R_forearm
R_weapon_bone R_forearm
R_front_hand01_01 R_front_hand
R_front_hand02_01 R_front_hand
R_front_hand03_01 R_front_hand
R_front_hand01_02 R_front_hand01_01
R_front_hand02_02 R_front_hand02_01
R_front_hand03_02 R_front_hand03_01
null_rope01_connect L_mid_tent01
Rope1_Seg01 null_rope01_connect
Rope1_Seg02 Rope1_Seg01
Rope1_Seg03 Rope1_Seg02
Rope1_Seg04 Rope1_Seg03
Rope1_Seg05 Rope1_Seg04
Rope1_Seg06 Rope1_Seg05
Rope1_Seg07 Rope1_Seg06
Rope1_Seg09 Rope1_Seg07
L_mid_hand01 Rope1_Seg09
L_mid_hand02 Rope1_Seg09
L_mid_hand03 Rope1_Seg09
null_rope02_connect R_mid_tent01
Rope2_Seg01 null_rope02_connect
Rope2_Seg02 Rope2_Seg01
Rope2_Seg03 Rope2_Seg02
Rope2_Seg04 Rope2_Seg03
Rope2_Seg05 Rope2_Seg04
Rope2_Seg06 Rope2_Seg05
Rope2_Seg07 Rope2_Seg06
Rope2_Seg09 Rope2_Seg07
R_mid_hand01 Rope2_Seg09
R_mid_hand02 Rope2_Seg09
R_mid_hand03 Rope2_Seg09
spine02 spine01
spine03 spine02
pelvis spine03
null_rope03_connect pelvis
null_rope04_connect pelvis
Rope3_Seg01 null_rope03_connect
Rope3_Seg02 Rope3_Seg01
Rope3_Seg03 Rope3_Seg02
Rope3_Seg04 Rope3_Seg03
Rope3_Seg05 Rope3_Seg04
Rope3_Seg06 Rope3_Seg05
Rope3_Seg07 Rope3_Seg06
Rope3_Seg08 Rope3_Seg07
Rope3_Seg09 Rope3_Seg08
R_rear_hand01 Rope3_Seg09
R_rear_hand02 Rope3_Seg09
R_rear_hand03 Rope3_Seg09
Rope4_Seg01 null_rope04_connect
Rope4_Seg02 Rope4_Seg01
Rope4_Seg03 Rope4_Seg02
Rope4_Seg04 Rope4_Seg03
Rope4_Seg05 Rope4_Seg04
Rope4_Seg06 Rope4_Seg05
Rope4_Seg07 Rope4_Seg06
Rope4_Seg08 Rope4_Seg07
Rope4_Seg09 Rope4_Seg08
L_rear_hand01 Rope4_Seg09
L_rear_hand02 Rope4_Seg09
L_rear_hand03 Rope4_Seg09
[BasePosition]
#SegmentName Tx, Ty, Tz, Rx, Ry, Rz, BoneLength
MASTER 0.000000 0.000000 0.000000 -90.000000 0.000000 0.000000 10.000000 
root 0.000000 0.000000 0.000000 0.000000 0.000000 0.000000 10.000000 
chest 0.000000 0.000000 0.000000 0.000000 0.000000 0.000000 10.000000 
L_mid_tent01 0.000000 0.000000 0.000000 0.000000 0.000000 0.000000 10.000000 
R_mid_tent01 0.000000 0.000000 0.000000 0.000000 0.000000 0.000000 10.000000 
spine01 0.000000 0.000000 0.000000 0.000000 0.000000 0.000000 10.000000 
Bip01_Neck 0.000000 0.000000 0.000000 0.000000 0.000000 0.000000 10.000000 
L_humerus 0.000000 0.000000 0.000000 0.000000 0.000000 0.000000 10.000000 
R_humerus 0.000000 0.000000 0.000000 0.000000 0.000000 0.000000 10.000000 
weapon_bone 0.000000 0.000000 0.000000 0.000000 0.000000 0.000000 10.000000 
Bip01_Head 0.000000 0.000000 0.000000 0.000000 0.000000 0.000000 10.000000 
eye_left_bone 0.000000 0.000000 0.000000 0.000000 0.000000 0.000000 10.000000 
eye_right_bone 0.000000 0.000000 0.000000 0.000000 0.000000 0.000000 10.000000 
L_forearm 0.000000 0.000000 0.000000 0.000000 0.000000 0.000000 10.000000 
L_front_hand 0.000000 0.000000 0.000000 0.000000 0.000000 0.000000 10.000000 
L_weapon_bone 0.000000 0.000000 0.000000 0.000000 0.000000 0.000000 10.000000 
L_front_hand01_01 0.000000 0.000000 0.000000 0.000000 0.000000 0.000000 10.000000 
L_front_hand02_01 0.000000 0.000000 0.000000 0.000000 0.000000 0.000000 10.000000 
L_front_hand03_01 0.000000 0.000000 0.000000 0.000000 0.000000 0.000000 10.000000 
L_front_hand01_02 0.000000 0.000000 0.000000 0.000000 0.000000 0.000000 10.000000 
L_front_hand02_02 0.000000 0.000000 0.000000 0.000000 0.000000 0.000000 10.000000 
L_front_hand03_02 0.000000 0.000000 0.000000 0.000000 0.000000 0.000000 10.000000 
R_forearm 0.000000 0.000000 0.000000 0.000000 0.000000 0.000000 10.000000 
R_front_hand 0.000000 0.000000 0.000000 0.000000 0.000000 0.000000 10.000000 
R_weapon_bone 0.000000 0.000000 0.000000 0.000000 0.000000 0.000000 10.000000 
R_front_hand01_01 0.000000 0.000000 0.000000 0.000000 0.000000 0.000000 10.000000 
R_front_hand02_01 0.000000 0.000000 0.000000 0.000000 0.000000 0.000000 10.000000 
R_front_hand03_01 0.000000 0.000000 0.000000 0.000000 0.000000 0.000000 10.000000 
R_front_hand01_02 0.000000 0.000000 0.000000 0.000000 0.000000 0.000000 10.000000 
R_front_hand02_02 0.000000 0.000000 0.000000 0.000000 0.000000 0.000000 10.000000 
R_front_hand03_02 0.000000 0.000000 0.000000 0.000000 0.000000 0.000000 10.000000 
null_rope01_connect 0.000000 0.000000 0.000000 0.000000 0.000000 0.000000 10.000000 
Rope1_Seg01 0.000000 0.000000 0.000000 0.000000 0.000000 0.000000 10.000000 
Rope1_Seg02 0.000000 0.000000 0.000000 0.000000 0.000000 0.000000 10.000000 
Rope1_Seg03 0.000000 0.000000 0.000000 0.000000 0.000000 0.000000 10.000000 
Rope1_Seg04 0.000000 0.000000 0.000000 0.000000 0.000000 0.000000 10.000000 
Rope1_Seg05 0.000000 0.000000 0.000000 0.000000 0.000000 0.000000 10.000000 
Rope1_Seg06 0.000000 0.000000 0.000000 0.000000 0.000000 0.000000 10.000000 
Rope1_Seg07 0.000000 0.000000 0.000000 0.000000 0.000000 0.000000 10.000000 
Rope1_Seg09 0.000000 0.000000 0.000000 0.000000 0.000000 0.000000 10.000000 
L_mid_hand01 0.000000 0.000000 0.000000 0.000000 0.000000 0.000000 10.000000 
L_mid_hand02 0.000000 0.000000 0.000000 0.000000 0.000000 0.000000 10.000000 
L_mid_hand03 0.000000 0.000000 0.000000 0.000000 0.000000 0.000000 10.000000 
null_rope02_connect 0.000000 0.000000 0.000000 0.000000 0.000000 0.000000 10.000000 
Rope2_Seg01 0.000000 0.000000 0.000000 0.000000 0.000000 0.000000 10.000000 
Rope2_Seg02 0.000000 0.000000 0.000000 0.000000 0.000000 0.000000 10.000000 
Rope2_Seg03 0.000000 0.000000 0.000000 0.000000 0.000000 0.000000 10.000000 
Rope2_Seg04 0.000000 0.000000 0.000000 0.000000 0.000000 0.000000 10.000000 
Rope2_Seg05 0.000000 0.000000 0.000000 0.000000 0.000000 0.000000 10.000000 
Rope2_Seg06 0.000000 0.000000 0.000000 0.000000 0.000000 0.000000 10.000000 
Rope2_Seg07 0.000000 0.000000 0.000000 0.000000 0.000000 0.000000 10.000000 
Rope2_Seg09 0.000000 0.000000 0.000000 0.000000 0.000000 0.000000 10.000000 
R_mid_hand01 0.000000 0.000000 0.000000 0.000000 0.000000 0.000000 10.000000 
R_mid_hand02 0.000000 0.000000 0.000000 0.000000 0.000000 0.000000 10.000000 
R_mid_hand03 0.000000 0.000000 0.000000 0.000000 0.000000 0.000000 10.000000 
spine02 0.000000 0.000000 0.000000 0.000000 0.000000 0.000000 10.000000 
spine03 0.000000 0.000000 0.000000 0.000000 0.000000 0.000000 10.000000 
pelvis 0.000000 0.000000 0.000000 0.000000 0.000000 0.000000 10.000000 
null_rope03_connect 0.000000 0.000000 0.000000 0.000000 0.000000 0.000000 10.000000 
null_rope04_connect 0.000000 0.000000 0.000000 0.000000 0.000000 0.000000 10.000000 
Rope3_Seg01 0.000000 0.000000 0.000000 0.000000 0.000000 0.000000 10.000000 
Rope3_Seg02 0.000000 0.000000 0.000000 0.000000 0.000000 0.000000 10.000000 
Rope3_Seg03 0.000000 0.000000 0.000000 0.000000 0.000000 0.000000 10.000000 
Rope3_Seg04 0.000000 0.000000 0.000000 0.000000 0.000000 0.000000 10.000000 
Rope3_Seg05 0.000000 0.000000 0.000000 0.000000 0.000000 0.000000 10.000000 
Rope3_Seg06 0.000000 0.000000 0.000000 0.000000 0.000000 0.000000 10.000000 
Rope3_Seg07 0.000000 0.000000 0.000000 0.000000 0.000000 0.000000 10.000000 
Rope3_Seg08 0.000000 0.000000 0.000000 0.000000 0.000000 0.000000 10.000000 
Rope3_Seg09 0.000000 0.000000 0.000000 0.000000 0.000000 0.000000 10.000000 
R_rear_hand01 0.000000 0.000000 0.000000 0.000000 0.000000 0.000000 10.000000 
R_rear_hand02 0.000000 0.000000 0.000000 0.000000 0.000000 0.000000 10.000000 
R_rear_hand03 0.000000 0.000000 0.000000 0.000000 0.000000 0.000000 10.000000 
Rope4_Seg01 0.000000 0.000000 0.000000 0.000000 0.000000 0.000000 10.000000 
Rope4_Seg02 0.000000 0.000000 0.000000 0.000000 0.000000 0.000000 10.000000 
Rope4_Seg03 0.000000 0.000000 0.000000 0.000000 0.000000 0.000000 10.000000 
Rope4_Seg04 0.000000 0.000000 0.000000 0.000000 0.000000 0.000000 10.000000 
Rope4_Seg05 0.000000 0.000000 0.000000 0.000000 0.000000 0.000000 10.000000 
Rope4_Seg06 0.000000 0.000000 0.000000 0.000000 0.000000 0.000000 10.000000 
Rope4_Seg07 0.000000 0.000000 0.000000 0.000000 0.000000 0.000000 10.000000 
Rope4_Seg08 0.000000 0.000000 0.000000 0.000000 0.000000 0.000000 10.000000 
Rope4_Seg09 0.000000 0.000000 0.000000 0.000000 0.000000 0.000000 10.000000 
L_rear_hand01 0.000000 0.000000 0.000000 0.000000 0.000000 0.000000 10.000000 
L_rear_hand02 0.000000 0.000000 0.000000 0.000000 0.000000 0.000000 10.000000 
L_rear_hand03 0.000000 0.000000 0.000000 0.000000 0.000000 0.000000 10.000000 
#Beginning of Data. Separated by tabs
#Fr	Tx	Ty	Tz	Rx	Ry	Rz	SF
[MASTER]
27 0.000000 0.000000 0.000000 0.001660 0.001660 0.001660 0.000000
28 0.000000 0.000000 0.000000 0.001660 0.001660 0.001660 0.000000
[root]
27 12.964549 200.441727 1481.184448 -76.450249 -11.837227 -110.532516 1494.741577
28 8.976171 167.394745 1471.606567 -78.723694 -11.755244 -105.072487 1481.123779
[chest]
27 -84.512650 -34.090519 0.000000 -2.796107 -0.505201 175.799652 91.129311
28 -84.512650 -34.090519 0.000000 -2.769051 0.091509 175.458405 91.129311
[L_mid_tent01]
27 27.299067 22.179287 -249.918671 55.263927 43.532948 81.688721 252.381668
28 27.299065 22.179283 -249.918686 37.585182 42.157562 62.436447 252.381683
[R_mid_tent01]
27 23.228794 24.509907 226.238495 -142.141312 -4.617548 24.956280 228.744751
28 23.228794 24.509907 226.238495 -146.152679 -3.939921 23.499813 228.744751
[spine01]
27 -0.361383 -0.195265 0.000000 0.001939 0.001323 21.387117 0.410763
28 -0.361383 -0.195265 0.000000 0.001940 0.001322 21.462618 0.410763
[Bip01_Neck]
27 165.484543 71.581718 0.000119 175.896118 1.177290 24.871183 180.302734
28 165.484543 71.581718 0.000119 175.896118 1.177290 24.871183 180.302734
[L_humerus]
27 -13.983130 -135.272980 -120.471481 -70.881958 55.354820 22.895033 181.680161
28 -13.983130 -135.272980 -120.471481 -61.632153 61.061489 31.149338 181.680161
[R_humerus]
27 -13.983309 -135.273102 125.287651 129.979233 -51.353447 -18.547728 184.909012
28 -13.983309 -135.273102 125.287651 121.634468 -60.017017 -13.833240 184.909012
[weapon_bone]
27 235.964890 -300.705902 0.000000 0.000000 -89.951546 -128.212341 382.234833
28 235.964890 -300.705902 0.000000 0.000000 -89.951546 -128.212341 382.234833
[Bip01_Head]
27 238.956772 117.234085 5.119407 18.591955 7.605608 -68.511505 266.214905
28 234.014038 124.417976 5.955279 14.605573 6.380162 -67.947334 265.099731
[eye_left_bone]
27 29.026789 157.153091 -75.114250 -104.218590 -85.597984 4.718000 176.583679
28 28.555294 156.874481 -75.023369 -104.218590 -85.597984 4.718000 176.220062
[eye_right_bone]
27 39.410271 157.987381 53.591431 75.788536 -85.594551 4.713911 171.421204
28 38.926231 157.741501 53.672558 75.788536 -85.594551 4.713911 171.109253
[L_forearm]
27 322.776093 0.000000 -0.000119 0.000266 0.002332 -76.993736 322.776093
28 322.776093 0.000000 -0.000119 0.000097 0.002345 -85.250076 322.776093
[L_front_hand]
27 241.149185 -0.042021 -3.300071 39.578915 3.347552 -5.332743 241.171753
28 241.149185 -0.042021 -3.300071 39.578922 3.347553 -5.332744 241.171753
[L_weapon_bone]
27 156.183838 0.000000 0.000000 0.001347 0.001922 -19.971006 156.183838
28 156.183838 0.000000 0.000000 0.001437 0.001856 -14.528067 156.183838
[L_front_hand01_01]
27 86.095154 20.947098 -0.655860 -0.288967 -0.524182 66.581490 88.609184
28 86.095154 20.947098 -0.655860 -0.288967 -0.524182 66.581490 88.609184
[L_front_hand02_01]
27 86.935165 -11.437475 24.513514 142.546371 -55.255390 -47.355206 91.046425
28 86.935165 -11.437475 24.513514 142.546371 -55.255390 -47.355206 91.046425
[L_front_hand03_01]
27 86.637497 -14.123976 -20.424902 -142.852753 53.473362 -49.356201 90.126129
28 86.637497 -14.123976 -20.424902 -142.852753 53.473362 -49.356201 90.126129
[L_front_hand01_02]
27 71.020905 -0.000179 0.000030 0.001382 0.001897 -17.860125 71.020905
28 71.020905 -0.000179 0.000030 0.001534 0.001777 -8.378867 71.020905
[L_front_hand02_02]
27 71.020927 -0.000119 0.000060 0.001382 0.001897 -17.860125 71.020927
28 71.020927 -0.000119 0.000060 0.001534 0.001777 -8.378867 71.020927
[L_front_hand03_02]
27 71.020905 -0.000060 0.000060 0.001382 0.001897 -17.860125 71.020905
28 71.020905 -0.000060 0.000060 0.001534 0.001777 -8.378867 71.020905
[R_forearm]
27 322.776428 -0.000060 0.000030 0.166672 -0.130427 -53.167656 322.776428
28 322.776428 -0.000060 0.000030 0.189892 -0.094991 -64.148712 322.776428
[R_front_hand]
27 238.847015 -0.006795 2.210259 -2.635298 -10.645461 -26.312506 238.857239
28 238.847015 -0.006795 2.210259 -2.635298 -10.645461 -26.312506 238.857239
[R_weapon_bone]
27 155.664093 0.002503 -0.000030 0.003487 0.001180 -90.988930 155.664078
28 155.664093 0.002503 -0.000030 0.003487 0.001180 -90.988930 155.664078
[R_front_hand01_01]
27 87.624611 14.231146 22.918642 -154.633499 -59.950619 61.746044 91.683487
28 87.624611 14.231146 22.918642 -154.633499 -59.950619 61.746044 91.683487
[R_front_hand02_01]
27 89.356956 14.367283 -19.491137 154.602661 58.302849 63.744389 92.579636
28 89.356956 14.367283 -19.491137 154.602661 58.302849 63.744389 92.579636
[R_front_hand03_01]
27 87.286232 -22.307278 -0.143439 0.162155 -0.423168 -75.767921 90.091743
28 87.286232 -22.307278 -0.143439 0.162155 -0.423168 -75.767921 90.091743
[R_front_hand01_02]
27 71.020905 0.000060 0.000119 0.002323 -0.000334 106.381714 71.020905
28 71.020905 0.000060 0.000119 0.002323 -0.000334 106.381714 71.020905
[R_front_hand02_02]
27 71.020844 -0.000030 -0.000119 0.002323 -0.000334 106.381714 71.020836
28 71.020844 -0.000030 -0.000119 0.002323 -0.000334 106.381714 71.020836
[R_front_hand03_02]
27 71.020905 0.000000 0.000030 0.002323 -0.000334 106.381714 71.020905
28 71.020905 0.000000 0.000030 0.002323 -0.000334 106.381714 71.020905
[null_rope01_connect]
27 328.732483 0.000000 -0.000238 -89.035843 -7.160787 124.885246 328.732483
28 328.732483 0.000000 -0.000238 -84.332008 -22.825596 133.967651 328.732483
[Rope1_Seg01]
27 -0.000023 0.000007 0.000029 95.144386 35.808025 111.454773 0.000037
28 -0.000022 0.000006 0.000024 116.672485 19.106129 156.380936 0.000033
[Rope1_Seg02]
27 139.999863 -0.000179 0.000000 9.268438 -12.142473 41.231983 139.999863
28 139.999863 -0.000179 0.000000 10.764087 -30.891832 -19.388821 139.999863
[Rope1_Seg03]
27 139.999924 0.000060 -0.000060 -20.576141 -14.863410 -33.820805 139.999924
28 139.999924 0.000060 -0.000060 1.794553 -5.482076 -11.522531 139.999924
[Rope1_Seg04]
27 139.999924 -0.000060 -0.000119 -2.558475 -0.325933 -8.214931 139.999924
28 139.999924 -0.000060 -0.000119 0.281511 -0.879663 -1.657416 139.999924
[Rope1_Seg05]
27 139.999832 0.000119 -0.000060 -0.740886 0.017048 -2.976125 139.999832
28 139.999832 0.000119 -0.000060 -0.003283 0.001657 0.001659 139.999832
[Rope1_Seg06]
27 139.999954 0.000119 -0.000060 -0.092331 0.006291 -0.389050 139.999954
28 139.999954 0.000119 -0.000060 -0.003285 0.001660 0.001660 139.999954
[Rope1_Seg07]
27 139.999985 0.000060 0.000000 0.006605 0.001660 0.001660 139.999985
28 139.999985 0.000060 0.000000 0.006605 0.001660 0.001660 139.999985
[Rope1_Seg09]
27 121.602913 0.000119 -0.000089 41.755764 -1.359551 0.848965 121.602913
28 121.602913 0.000119 -0.000089 57.568462 -1.360174 0.846031 121.602913
[L_mid_hand01]
27 103.859421 1.038730 8.195221 130.544357 -67.584518 -38.866924 104.187431
28 103.859421 1.038730 8.195221 128.484711 -66.520020 -36.629086 104.187431
[L_mid_hand02]
27 105.572853 -4.139662 -10.864139 -168.923157 43.409309 -73.498871 106.211075
28 105.572853 -4.139662 -10.864139 -167.652298 43.129784 -71.648811 106.211075
[L_mid_hand03]
27 104.641464 17.579376 -3.913581 -6.012631 17.808174 74.893646 106.179977
28 104.641464 17.579376 -3.913581 -6.454773 17.660183 73.454308 106.179977
[null_rope02_connect]
27 328.732849 0.000179 -0.000119 161.444016 34.991550 -102.176117 328.732849
28 328.732849 0.000179 -0.000119 163.425400 42.603237 -98.815567 328.732849
[Rope2_Seg01]
27 0.000095 0.000153 0.000062 -21.106504 16.433764 -39.989182 0.000190
28 0.000095 0.000153 0.000064 -50.551868 17.191944 -35.728642 0.000191
[Rope2_Seg02]
27 139.999741 -0.000060 -0.000119 6.152040 -9.698803 2.745292 139.999756
28 139.999741 -0.000060 -0.000119 29.523371 -6.760890 -3.953879 139.999756
[Rope2_Seg03]
27 140.000107 0.000030 0.000000 1.382063 -20.690788 7.719755 140.000107
28 140.000107 0.000030 0.000000 14.100840 -18.508568 -0.111187 140.000107
[Rope2_Seg04]
27 139.999802 0.000000 -0.000060 -1.069584 -28.772243 11.122055 139.999802
28 139.999802 0.000000 -0.000060 2.232157 -30.284212 8.184393 139.999802
[Rope2_Seg05]
27 139.999985 -0.000060 0.000119 -20.445747 -38.400558 73.296165 139.999985
28 139.999985 -0.000060 0.000119 80.775276 -45.804028 169.728195 139.999985
[Rope2_Seg06]
27 139.999893 -0.000030 -0.000119 65.685326 -21.940168 44.963341 139.999893
28 139.999893 -0.000030 -0.000119 -21.082266 7.001928 -16.949085 139.999893
[Rope2_Seg07]
27 139.999893 0.000060 -0.000060 10.435608 3.923009 4.361001 139.999893
28 139.999893 0.000060 -0.000060 -0.620811 0.660421 -0.733911 139.999893
[Rope2_Seg09]
27 121.338966 0.000089 -0.000060 33.793236 -1.359788 -0.847141 121.338966
28 121.338966 0.000089 -0.000060 33.793236 -1.359788 -0.847141 121.338966
[R_mid_hand01]
27 104.680779 11.144459 -10.335981 -44.145947 19.560663 21.759447 105.778534
28 104.680779 11.144459 -10.335981 -44.145947 19.560663 21.759447 105.778534
[R_mid_hand02]
27 104.070427 2.443552 8.231699 74.186195 -24.483599 7.232481 104.424065
28 104.070427 2.443552 8.231699 74.186180 -24.483591 7.232481 104.424065
[R_mid_hand03]
27 106.028137 -11.221827 -5.996406 -166.520828 8.347036 -28.494415 106.788818
28 106.028137 -11.221827 -5.996406 -166.520828 8.347038 -28.494417 106.788818
[spine02]
27 129.756927 0.001550 0.000119 0.301097 -4.050428 -12.081610 129.756927
28 129.756927 0.001550 0.000119 0.301802 -4.050375 -12.101543 129.756927
[spine03]
27 78.614044 0.081511 -4.899009 2.043534 3.757131 18.664934 78.766579
28 78.614044 0.081506 -4.899008 2.020837 3.770106 18.321058 78.766579
[pelvis]
27 169.435242 0.051022 0.000000 -0.060786 -0.180117 14.292269 169.435257
28 169.435242 0.051022 0.000000 -0.060711 -0.180143 14.244090 169.435257
[null_rope03_connect]
27 -1.257226 -2.466202 137.391083 -49.845085 -67.426949 112.026672 137.418976
28 -1.257226 -2.466202 137.391083 -45.634670 -72.536308 107.073524 137.418976
[null_rope04_connect]
27 -1.259640 -2.480268 -137.844437 -49.845085 -67.426949 112.026672 137.872513
28 -1.259640 -2.480268 -137.844437 -45.634670 -72.536308 107.073524 137.872513
[Rope3_Seg01]
27 0.000000 0.000000 0.000000 -127.114929 -5.767832 -101.089584 0.000000
28 0.000000 0.000000 0.000000 -130.514145 2.265994 -96.010979 0.000000
[Rope3_Seg02]
27 139.999924 -0.000119 0.000060 -0.758559 2.290526 7.337497 139.999924
28 139.999924 -0.000119 0.000060 -0.744714 0.783379 5.246005 139.999924
[Rope3_Seg03]
27 139.999924 -0.000119 0.000119 -1.977844 3.121539 10.860292 139.999924
28 139.999924 -0.000119 0.000119 -1.556721 0.824033 7.261401 139.999924
[Rope3_Seg04]
27 139.999924 0.000119 0.000000 -7.694402 3.331730 17.115591 139.999924
28 139.999924 0.000119 0.000000 -4.879856 -1.472258 10.290991 139.999924
[Rope3_Seg05]
27 139.999924 -0.000238 0.000060 -15.736863 3.864505 17.369011 139.999924
28 139.999924 -0.000238 0.000060 -3.608145 6.558668 17.153528 139.999924
[Rope3_Seg06]
27 139.999893 -0.000119 -0.000060 -11.204173 0.474413 6.284484 139.999893
28 139.999893 -0.000119 -0.000060 -0.631494 3.897363 7.175271 139.999893
[Rope3_Seg07]
27 139.999771 0.000060 -0.000119 -12.331732 -0.847282 3.750158 139.999771
28 139.999771 0.000060 -0.000119 -1.687075 1.328596 3.737209 139.999771
[Rope3_Seg08]
27 139.999985 -0.000060 0.000000 -8.778030 -0.918906 1.967151 139.999985
28 139.999985 -0.000060 0.000000 -1.069134 0.679293 2.112324 139.999985
[Rope3_Seg09]
27 90.185997 -0.000179 -0.000060 25.399019 -1.360530 -0.848077 90.185997
28 90.185997 -0.000179 -0.000060 22.540342 -1.361436 -0.847617 90.185997
[R_rear_hand01]
27 103.366196 -6.073594 -10.757982 -160.019470 14.769056 -24.439318 104.101845
28 103.366196 -6.073594 -10.757982 -160.019470 14.769056 -24.439318 104.101845
[R_rear_hand02]
27 100.509819 12.039542 -7.992327 -35.779449 15.980559 23.927948 101.543350
28 100.509819 12.039542 -7.992327 -35.779446 15.980558 23.927948 101.543350
[R_rear_hand03]
27 101.539970 5.215704 5.435467 83.711815 -25.208059 6.550416 101.819031
28 101.539970 5.215704 5.435467 83.711815 -25.208057 6.550413 101.819031
[Rope4_Seg01]
27 -0.000011 -0.000014 -0.000153 31.177591 40.275993 -131.550034 0.000154
28 -0.000011 -0.000012 -0.000153 37.109547 33.131950 -124.166298 0.000153
[Rope4_Seg02]
27 139.999985 0.000060 0.000119 -0.668989 -0.935651 -4.549273 139.999985
28 139.999985 0.000060 0.000119 -0.428821 0.366038 -3.110959 139.999985
[Rope4_Seg03]
27 139.999924 0.000000 -0.000238 0.438685 -1.229621 1.218621 139.999924
28 139.999924 0.000000 -0.000238 -0.227588 0.978294 -1.360426 139.999924
[Rope4_Seg04]
27 139.999985 0.000000 0.000119 -0.747901 -1.516315 -4.322282 139.999985
28 139.999985 0.000000 0.000119 0.804195 2.945112 7.106650 139.999985
[Rope4_Seg05]
27 139.999802 -0.000060 -0.000119 -24.916292 -0.072029 -52.840809 139.999802
28 139.999802 -0.000060 -0.000119 -6.702024 -5.926102 -39.268261 139.999802
[Rope4_Seg06]
27 139.999924 0.000000 0.000060 -10.165770 6.496403 -14.160487 139.999924
28 139.999924 0.000000 0.000060 -17.211447 -0.781483 -30.843365 139.999924
[Rope4_Seg07]
27 139.999802 0.000000 0.000000 -3.144141 3.036614 -4.532248 139.999802
28 139.999802 0.000000 0.000000 -6.055309 2.362361 -7.921425 139.999802
[Rope4_Seg08]
27 139.999924 0.000000 0.000119 -3.038910 1.669809 -2.219878 139.999924
28 139.999924 0.000000 0.000119 -4.462016 1.518307 -3.651695 139.999924
[Rope4_Seg09]
27 90.185791 0.000060 0.000060 168.966461 2.227099 0.850056 90.185791
28 90.185791 0.000060 0.000060 167.345123 2.227426 0.849589 90.185791
[L_rear_hand01]
27 101.696655 -8.392275 -7.654577 -34.621269 -18.604879 152.181107 102.329041
28 101.696655 -8.392275 -7.654577 -35.296391 -17.139994 154.380905 102.329041
[L_rear_hand02]
27 102.726799 -1.568258 5.773216 83.447212 29.730906 172.873245 102.900848
28 102.726799 -1.568258 5.773216 83.602142 27.193537 173.204086 102.900848
[L_rear_hand03]
27 104.552910 9.721220 -10.420293 -161.213150 -16.280878 -151.108429 105.519653
28 104.552910 9.721220 -10.420293 -160.526413 -15.440563 -153.616974 105.519653
